<?xml version="1.0" encoding="utf-8"?>
<!-- Generator: Adobe Illustrator 23.1.1, SVG Export Plug-In . SVG Version: 6.00 Build 0)  -->
<svg version="1.1" baseProfile="tiny" id="Laag_1" xmlns="http://www.w3.org/2000/svg" xmlns:xlink="http://www.w3.org/1999/xlink"
	 x="0px" y="0px" viewBox="0 0 185.2 266.15" xml:space="preserve">
<g>
	<path fill="#FEFAF5" d="M2.28,228.71c-1.38-4.85-1.38-4.85-2.22-10.12c-0.28-1.74,0.54-3.52,0.54-5.31
		c0-36.83-0.07-73.67,0.12-110.5c0.02-3.4,0.37,2.8-0.27-5.19c0.27-0.46-0.06-5.59,0.23-6.03c0.45,2.23,1.52,3.21,4.08,3.54
		c18.94,2.45,37.97,3.87,57.03,4.52c35.02,1.18,70.01,0.25,104.94-2.6c-0.52,3.39-1.26,6.76-1.53,10.17
		c-0.99,12.48-3.66,24.72-6.3,36.86c-2.08,9.54-4.65,19.05-7.59,28.45c-6.02,19.21-13,37.76-26.37,53.24
		c-0.71,0.82-0.45,1.84-0.53,2.78c-1.1,0.34-2.2,0.68-3.31,1.02c-6.38-0.04-12.76-0.08-19.14-0.12c-0.82-0.91-1.63-0.91-2.45,0
		c-1.38,0.05-2.76,0.15-4.14,0.16c-29.43,0.08-58.79-1.14-88.02-4.86C1.51,223.97,1.5,224.04,2.28,228.71z M141.1,140.83
		c0.01-7.73-1.5-15.15-5.21-21.95c-2.81-5.16-7.02-5.51-9.87-0.71c-1.98,3.33-4.19,4.37-7.77,3.42c-1.59-0.42-3.28-0.44-4.92-0.65
		c-12.58-1.64-20.23,2.58-25.84,13.95c-2.41,4.88-3.52,10.17-5.09,15.29c-1,3.26-2.63,4.5-5.85,4.57
		c-5.85,0.13-11.51,1.38-16.97,3.46c-10.89,4.16-17.48,16.56-14.24,26.72c3.64,11.44,17.96,19.87,28.84,17.25
		c8.85-2.13,14.92-8.15,19.54-15.14c6.19-9.35,14.21-15.15,25.09-17.22c0.27-0.05,0.55-0.09,0.81-0.18
		C133.73,165.21,141.1,155.32,141.1,140.83z"/>
	<path fill="#EEAE52" d="M166.74,97.01c-34.93,2.85-69.93,3.78-104.94,2.6C42.74,98.97,23.7,97.55,4.76,95.1
		c-2.56-0.33-3.62-1.31-4.08-3.54c-1.47-15.94,4.18-29.49,14.03-41.62c7.89-0.34,15.5,1.85,23.28,2.56
		c-0.32,0.14-0.87,0.02-0.73,0.65c0.02,0.07,0.19,0.14,0.3,0.15c4.08,0.57,8.15,1.54,12.23,1.62c11.16,0.22,22.13,2.33,33.29,2.85
		c13.27,0.62,26.55,1.98,39.76,3.78c9.8,1.34,19.58,2.48,29,5.74c6.3,2.18,10,6.54,12.71,12.47c2.48,5.42,2.25,10.95,2.23,16.57
		C166.75,96.56,166.73,96.79,166.74,97.01z M41.21,64.97c-2.99,0-5.48-0.12-7.96,0.02c-5.41,0.31-10.59,1.45-15.21,4.51
		c-4.35,2.88-4.5,5.79-0.55,9.09c1.11,0.93,2.32,1.42,3.56,1.97c4.87,2.16,10.05,2.5,15.29,2.96c9.11,0.79,17.73-0.22,25.87-4.68
		c2.05-1.12,3.25-2.3,3.26-4.68c0.01-2.61-1.59-3.87-3.62-5.03C55.26,65.36,48.11,64.56,41.21,64.97z"/>
	<path fill="#F4EDE7" d="M166.74,97.01c0-0.22,0.01-0.45,0.05-0.67c6.12-0.42,12.31-0.36,18.2-2.48c0.04,18.69,0.1,37.38,0.12,56.07
		c0.02,23.12,0.02,46.24-0.02,69.37c0,1.56,0.66,3.39-1.11,4.56c-8.11,1.58-16.35,2.16-24.56,2.85
		c-11.64,0.97-23.26,2.38-34.98,1.81c0.08-0.95-0.18-1.96,0.53-2.78c13.37-15.49,20.35-34.04,26.37-53.24
		c2.94-9.4,5.52-18.92,7.59-28.45c2.64-12.15,5.32-24.38,6.3-36.86C165.48,103.77,166.22,100.4,166.74,97.01z"/>
	<path fill="#F8F3EC" d="M37.99,52.5c-7.78-0.71-15.39-2.9-23.28-2.56c-3.72-3.65-2.92-8.06-2.58-12.65
		c0.67-9.05-0.28-18.12-0.73-27.17c2.98-0.46,5.6,1.17,8.35,1.5c11.73,1.42,23.5,3.12,35.28,3.28c14.92,0.2,29.87,1.7,44.74,0.82
		c11.84-0.7,23.74,0.28,35.52-1.42c-0.23,2.85-0.02,5.97-4.28,6.02c-0.84,0.01-1.49,0.9-1.46,1.76c0.11,3.22-0.9,6.53,0.65,9.65
		c-0.37,2.74-1.07,5.45-0.84,8.25c-2.3,0.13-3.29,2.11-4.2,3.59c-3.2,5.2-7.87,7.43-13.68,8.58c-2.29,0.45-5.36-1.2-7,1.83
		c-2.89,0.07-5.78,0.15-8.67,0.2C76.5,54.57,57.25,53.42,37.99,52.5z M49.64,33.84c0,3.72,0,7.45,0,11.17
		c0,1.64,0.28,3.14,2.31,3.24c2.28,0.11,2.67-1.44,2.67-3.29c-0.01-7.17-0.01-14.34-0.01-21.51c0-1.64-0.27-3.14-2.31-3.24
		c-2.29-0.11-2.67,1.45-2.66,3.3C49.65,26.94,49.64,30.39,49.64,33.84z M70.4,35.09c0-3.6-0.01-7.2,0-10.79
		c0-1.64-0.24-3.16-2.29-3.27c-2.29-0.12-2.69,1.44-2.68,3.29c0.01,7.06,0.03,14.11-0.01,21.17c-0.01,1.79,0.39,2.89,2.51,2.88
		c2.13,0,2.51-1.14,2.48-2.91C70.36,42.01,70.4,38.55,70.4,35.09z M113.63,34.88c0,3.44-0.03,6.89,0.01,10.33
		c0.02,1.31-0.36,2.9,1.74,3.11c2.23,0.22,3.08-1.26,3.11-3c0.11-7.16,0.1-14.32-0.01-21.48c-0.02-1.34-0.61-2.81-2.42-2.8
		c-2.04,0.01-2.44,1.42-2.43,3.1C113.64,27.72,113.64,31.3,113.63,34.88z M38,32.81c0-3.6,0.01-7.2,0-10.8
		c0-1.26,0.1-2.65-1.77-2.64c-1.52,0.01-2.33,0.92-2.34,2.35c-0.04,7.48-0.04,14.96-0.02,22.44c0.01,1.42,0.75,2.39,2.27,2.44
		c1.82,0.06,1.86-1.26,1.86-2.57C38.01,40.29,38.01,36.55,38,32.81z M22.19,32.04c0-3.86,0.01-7.73,0-11.59
		c-0.01-1.57-0.62-2.69-2.37-2.77c-1.22-0.05-1.75,0.67-1.75,1.8c0,7.73-0.02,15.45,0.06,23.18c0.02,1.52,1.33,2.09,2.61,2.13
		c1.65,0.06,1.44-1.35,1.45-2.41C22.22,38.94,22.2,35.49,22.19,32.04z M86.19,35.33c0-3.58,0.01-7.17,0-10.75
		c-0.01-1.58-0.64-2.69-2.38-2.75c-1.45-0.04-2.67,0.68-2.4,2.15c1.33,7.26,0.28,14.56,0.62,21.83c0.06,1.36,0.23,2.46,1.96,2.52
		c1.95,0.07,2.24-1.12,2.23-2.67C86.19,42.22,86.2,38.77,86.19,35.33z M102.01,35.06c0-3.45,0-6.91,0-10.36
		c0-1.41,0.08-2.85-1.99-2.91c-1.99-0.06-2.19,1.19-2.18,2.71c0.02,7.04,0.02,14.09,0,21.13c0,1.53,0.2,2.77,2.19,2.71
		c2.06-0.07,1.98-1.51,1.98-2.92C102.01,41.96,102.01,38.51,102.01,35.06z"/>
	<path fill="#E1923E" d="M124.42,228.52c11.72,0.57,23.35-0.84,34.98-1.81c8.21-0.69,16.45-1.27,24.56-2.85
		c-0.09,6.94-4,12.18-7.91,17.32c-10.99,14.44-26.59,20.04-43.8,22.26c-29.09,3.75-58.15,3.94-87.06-1.56
		c-10.4-1.98-20.34-5.26-28.05-13.12c0.16-1.01,0.57-1.45,1.66-0.94c1.49,0.7,2.92,1.47,4.62,1.75c14.56,2.45,29.22,3.32,43.99,3.35
		c14.07,0.03,27.35-2.34,39.14-10.39c5.39-3.68,10.98-7.23,14.56-12.98C122.22,229.2,123.32,228.86,124.42,228.52z"/>
	<path fill="#EEAE52" d="M121.12,229.54c-3.58,5.75-9.17,9.3-14.56,12.98c-11.79,8.05-25.07,10.42-39.14,10.39
		c-14.77-0.03-29.42-0.9-43.99-3.35c-1.7-0.29-3.13-1.06-4.62-1.75c-1.1-0.51-1.5-0.06-1.66,0.94c-6.88-5.26-11.47-12.2-14.87-20.04
		c-0.78-4.67-0.77-4.74,5.09-3.99c29.22,3.72,58.58,4.94,88.02,4.86c1.38,0,2.76-0.1,4.14-0.16c0.82,0,1.63,0,2.45,0
		C108.35,229.46,114.74,229.5,121.12,229.54z"/>
	<path fill="#FEFAF7" d="M135.29,14.32c-11.78,1.69-23.68,0.71-35.52,1.42c-14.87,0.88-29.81-0.61-44.74-0.82
		c-11.78-0.16-23.55-1.86-35.28-3.28c-2.75-0.33-5.38-1.96-8.35-1.5c0.28-5.25,4.84-4.44,7.77-4.8c4.77-0.58,9.3-1.83,13.86-3.12
		c1.52-0.43,3-0.33,4.51-0.4c8.81-0.41,17.64-0.29,26.44-0.46c13.32-0.25,26.66-2.59,40-0.48c0.41,0.06,0.83,0.1,1.24,0.09
		c9.79-0.19,19.56,0.55,29.34,0.72c9.62,0.17,19.1,0.53,28.48,3.03c3.8,1.01,8.23,0.05,10.44,4.56
		C160.99,12.81,148.1,13.27,135.29,14.32z"/>
	<path fill="#E1923F" d="M37.99,52.5c19.26,0.92,38.51,2.06,57.8,1.7c2.89-0.05,5.78-0.13,8.67-0.2c11.2,0.31,22.35-0.64,33.52-1.1
		c10.76-0.45,21.42-1.82,32.04-3.55c1.08,0.93,1.52,2.53,3.08,2.97c2.33,4.68,5.7,8.72,7.97,13.48c4.31,9.02,3.87,18.55,3.91,28.07
		c-5.89,2.12-12.13,2.73-18.25,3.15c0.02-5.62,0.3-11.81-2.18-17.24c-2.71-5.93-6.41-10.29-12.71-12.47
		c-9.42-3.27-19.2-4.41-29-5.74c-13.21-1.8-26.49-3.16-39.76-3.78c-11.16-0.53-22.13-2.63-33.29-2.85
		c-4.09-0.08-8.16-1.05-12.23-1.62c-0.11-0.02-0.29-0.08-0.3-0.15C37.12,52.53,37.68,52.65,37.99,52.5z"/>
	<path fill="#EEE1D3" d="M170.03,49.34c-10.62,1.74-21.28,3.1-32.04,3.55c-11.17,0.47-22.32,1.42-33.52,1.1
		c1.64-3.03,4.72-1.38,7-1.83c5.81-1.14,10.48-3.38,13.68-8.58c0.91-1.48,1.9-3.47,4.2-3.59c0.03,1.51,0.07,3.02,0.07,4.53
		c0.01,1.87,0.03,3.81,2.63,3.72c2.31-0.08,2.35-1.87,2.35-3.59c0-6.73,0.02-13.47-0.03-20.2c-0.01-0.79,0.49-2.04-1.32-2.14
		c-0.29,3.33-2.72,12.04-3.69,15.19c-0.06-6.11,0.28-12.19,0.18-15.41c-0.03-0.86,0.62-1.75,1.46-1.76
		c4.27-0.05,4.06-3.17,4.28-6.02c12.81-1.05,25.7-1.5,38.19-5.03c0,11.41,0,22.83,0.02,34.24c0,1.66,0.09,3.31-0.88,4.78
		C171.63,48.36,170.61,48.31,170.03,49.34z M145.23,32.76c0,3.59,0,7.18,0,10.76c0,1.7,0.44,3.08,2.47,3.09
		c2.02,0.01,2.5-1.35,2.5-3.06c0-7.04,0-14.08,0-21.12c0-1.7-0.45-3.07-2.47-3.08c-2.02-0.01-2.5,1.34-2.5,3.05
		C145.24,25.86,145.23,29.31,145.23,32.76z M166,31.79c0-3.58,0.01-7.16,0-10.73c0-1.57-0.05-3.3-2.17-3.26
		c-1.81,0.03-2,1.58-2,3.03c0,7.16,0.01,14.31-0.01,21.47c0,1.52,0.2,2.76,2.18,2.71c2.04-0.06,2-1.47,2-2.89
		C166,38.67,166,35.23,166,31.79z"/>
	<path fill="#FEFAF7" d="M170.03,49.34c0.59-1.03,1.61-0.99,2.59-1.04c0.03,1.35,1.18,2.56,0.49,4
		C171.54,51.87,171.11,50.27,170.03,49.34z"/>
	<path fill="#EEAE53" d="M141.1,140.83c0.01,14.49-7.36,24.38-21.49,28.82c-0.26,0.08-0.54,0.12-0.81,0.18
		c-10.88,2.07-18.9,7.87-25.09,17.22c-4.63,6.99-10.69,13.01-19.54,15.14c-10.88,2.62-25.19-5.82-28.84-17.25
		c-3.24-10.16,3.35-22.56,14.24-26.72c5.46-2.08,11.12-3.33,16.97-3.46c3.22-0.07,4.85-1.31,5.85-4.57
		c1.57-5.12,2.69-10.41,5.09-15.29c5.61-11.37,13.25-15.59,25.84-13.95c1.64,0.21,3.34,0.23,4.92,0.65
		c3.58,0.95,5.79-0.09,7.77-3.42c2.85-4.8,7.06-4.45,9.87,0.71C139.59,125.68,141.1,133.1,141.1,140.83z M107.85,144.8
		c2.35-0.24,3.01,3.02,5.32,2.98c0.77-2.25-3.83-3.88-0.32-5.75c1.99-1.07,3.5-3.15,5.94-3.2c0.76-0.02,1.68,1.46,2.19-0.23
		c0.35-1.16-0.09-2.24-1.26-2.76c-2.65-1.17-4.13-3.57-5.76-5.7c-2.12-2.76-3.93-3.37-6.92-1.08c-2.91,2.23-6.29,3.88-11.23,2.81
		c4.71,2.07-0.37,3.81,0.72,5.74c4.66-1.51,10.16,2.02,11.24,7.1c-1.37,0.1-2.91-0.01-2.86,2.17
		C106.57,146.94,107.56,146.36,107.85,144.8z"/>
	<path fill="#F4EDE7" d="M101.97,229.42c-0.82,0-1.63,0-2.45,0C100.34,228.51,101.16,228.51,101.97,229.42z"/>
	<path fill="#FAD895" d="M41.21,64.97c6.9-0.42,14.04,0.39,20.63,4.16c2.03,1.16,3.63,2.42,3.62,5.03c0,2.37-1.2,3.55-3.26,4.68
		c-8.14,4.46-16.76,5.47-25.87,4.68c-5.24-0.45-10.42-0.79-15.29-2.96c-1.24-0.55-2.45-1.04-3.56-1.97c-3.94-3.3-3.8-6.21,0.55-9.09
		c4.63-3.06,9.8-4.2,15.21-4.51C35.74,64.86,38.23,64.97,41.21,64.97z"/>
	<path fill="#EADDCE" d="M49.64,33.84c0-3.45,0.01-6.89,0-10.34c-0.01-1.84,0.37-3.41,2.66-3.3c2.04,0.1,2.31,1.6,2.31,3.24
		c-0.01,7.17-0.01,14.34,0.01,21.51c0,1.85-0.38,3.4-2.67,3.29c-2.03-0.1-2.32-1.6-2.31-3.24C49.64,41.28,49.64,37.56,49.64,33.84z"
		/>
	<path fill="#EADDCE" d="M70.4,35.09c0,3.46-0.04,6.92,0.01,10.38c0.03,1.77-0.35,2.9-2.48,2.91c-2.11,0-2.52-1.1-2.51-2.88
		c0.04-7.06,0.02-14.11,0.01-21.17c0-1.86,0.39-3.41,2.68-3.29c2.05,0.11,2.29,1.63,2.29,3.27C70.4,27.9,70.4,31.49,70.4,35.09z"/>
	<path fill="#EADDCE" d="M113.64,34.88c0-3.58,0-7.16,0-10.74c0-1.68,0.4-3.09,2.43-3.1c1.81-0.01,2.4,1.47,2.42,2.8
		c0.11,7.16,0.13,14.32,0.01,21.48c-0.03,1.74-0.88,3.21-3.11,3c-2.1-0.21-1.73-1.8-1.74-3.11
		C113.61,41.76,113.63,38.32,113.64,34.88z"/>
	<path fill="#E9DDCB" d="M38,32.81c0,3.74,0.01,7.48,0,11.22c0,1.3-0.05,2.63-1.86,2.57c-1.52-0.05-2.26-1.02-2.27-2.44
		c-0.03-7.48-0.03-14.96,0.02-22.44c0.01-1.43,0.82-2.34,2.34-2.35c1.87-0.01,1.77,1.38,1.77,2.64C38.01,25.61,38,29.21,38,32.81z"
		/>
	<path fill="#E9DDCB" d="M22.2,32.04c0,3.45,0.02,6.9-0.01,10.35c-0.01,1.06,0.2,2.46-1.45,2.41c-1.28-0.04-2.59-0.62-2.61-2.13
		c-0.08-7.72-0.06-15.45-0.06-23.18c0-1.13,0.53-1.86,1.75-1.8c1.75,0.08,2.36,1.19,2.37,2.77C22.2,24.32,22.19,28.18,22.2,32.04z"
		/>
	<path fill="#E9DDCB" d="M86.2,35.33c0.01,3.45-0.01,6.89,0.01,10.34c0.01,1.55-0.28,2.74-2.23,2.67c-1.73-0.06-1.9-1.16-1.96-2.52
		c-0.34-7.27,0.71-14.58-0.62-21.83c-0.27-1.47,0.95-2.19,2.4-2.15c1.75,0.05,2.38,1.17,2.38,2.75
		C86.2,28.16,86.19,31.74,86.2,35.33z"/>
	<path fill="#E9DDCB" d="M102.01,35.06c0,3.45,0,6.91,0,10.36c0,1.41,0.08,2.85-1.98,2.92c-1.99,0.07-2.19-1.18-2.19-2.71
		c0.01-7.04,0.01-14.09,0-21.13c0-1.53,0.2-2.77,2.18-2.71c2.07,0.06,1.98,1.5,1.99,2.91C102.01,28.15,102.01,31.6,102.01,35.06z"/>
	<path fill="#E0CEBA" d="M130.2,31.75c0.96-3.15,2.57-6.09,2.86-9.43c1.81,0.1,1.32,1.36,1.32,2.14c0.05,6.73,0.03,13.47,0.03,20.2
		c0,1.72-0.04,3.51-2.35,3.59c-2.6,0.09-2.63-1.85-2.63-3.72c0-1.51-0.05-3.02-0.07-4.53C129.12,37.19,129.83,34.49,130.2,31.75z"/>
	<path fill="#E0CEBA" d="M145.23,32.76c0-3.45,0-6.9,0-10.35c0-1.71,0.48-3.06,2.5-3.05c2.03,0.01,2.47,1.38,2.47,3.08
		c-0.01,7.04-0.01,14.08,0,21.12c0,1.71-0.48,3.07-2.5,3.06c-2.03-0.01-2.47-1.39-2.47-3.09C145.24,39.94,145.23,36.35,145.23,32.76
		z"/>
	<path fill="#E0CEBA" d="M166,31.79c0,3.44,0,6.88,0,10.32c0,1.42,0.04,2.83-2,2.89c-1.97,0.05-2.18-1.19-2.18-2.71
		c0.01-7.16,0.01-14.31,0.01-21.47c0-1.46,0.19-3,2-3.03c2.12-0.04,2.16,1.7,2.17,3.26C166,24.64,166,28.22,166,31.79z"/>
	<path fill="#F8CA75" d="M107.77,144.72c-1.08-5.09-6.58-8.61-11.24-7.1c-1.09-1.93,3.99-3.67-0.72-5.74
		c4.93,1.07,8.31-0.58,11.23-2.81c2.99-2.29,4.81-1.68,6.92,1.08c1.63,2.12,3.11,4.52,5.76,5.7c1.17,0.52,1.61,1.59,1.26,2.76
		c-0.51,1.69-1.43,0.21-2.19,0.23c-2.44,0.05-3.95,2.14-5.94,3.2c-3.51,1.87,1.09,3.51,0.32,5.75c-2.31,0.03-2.97-3.22-5.32-2.98
		L107.77,144.72z M101.42,135.02c2.01,1.56,3.81,2.82,5.45,4.26c1.96,1.73,8.27,0.36,9.07-2.1c0.11-0.35,0.02-0.81-0.1-1.18
		c-1.36-3.99-6.28-5.91-9.89-3.85C104.76,132.83,103.65,133.6,101.42,135.02z"/>
	<path fill="#F8CA75" d="M107.85,144.8c-0.28,1.56-1.28,2.13-2.93,2.09c-0.05-2.18,1.48-2.08,2.86-2.17
		C107.77,144.72,107.85,144.8,107.85,144.8z"/>
	<path fill="#EEAE53" d="M101.42,135.02c2.23-1.42,3.35-2.19,4.53-2.86c3.61-2.06,8.53-0.14,9.89,3.85c0.13,0.37,0.21,0.83,0.1,1.18
		c-0.8,2.46-7.11,3.83-9.07,2.1C105.23,137.84,103.43,136.58,101.42,135.02z"/>
</g>
</svg>
